<svg width="200" height="46" viewBox="0 0 200 46" fill="none" xmlns="http://www.w3.org/2000/svg">
<g clip-path="url(#clip0_326_150)">
<path fill-rule="evenodd" clip-rule="evenodd" d="M19.6183 0.751079C11.2922 2.09255 4.41367 7.9056 1.75726 15.8452C0.192296 20.523 0.194238 25.4833 1.76283 30.1717C2.21552 31.5246 3.08191 33.4503 3.65488 34.3772L3.95296 34.8592L10.9232 27.8971C15.1157 23.7093 18.0664 20.6605 18.3274 20.2467C18.8876 19.3579 19.0715 18.5161 18.9012 17.6183C18.6361 16.2208 17.5437 15.434 15.7364 15.3391C14.2977 15.2636 13.5091 15.526 12.6054 16.3807C12.1366 16.8239 11.8757 16.986 11.7519 16.9109C11.6537 16.8515 10.8634 16.2583 9.99543 15.5929L8.41753 14.383L8.68098 14.0129C9.47888 12.8923 11.3439 11.7269 13.0286 11.296C14.2609 10.9809 16.514 10.9537 17.726 11.2395C19.8246 11.7341 21.8275 13.2724 22.7113 15.0683C23.9623 17.6099 23.5519 20.4934 21.5373 23.3166C21.0346 24.021 15.4393 29.664 12.7232 32.2058C12.2781 32.6224 11.9139 33.0127 11.9139 33.073C11.9139 33.1333 14.3029 33.1828 17.2228 33.1828H22.5317V32.2764V31.37H19.3319H16.1319L16.7696 30.7226L17.4074 30.0751H20.6169H23.8266V32.2117V34.3482L16.284 34.3473L8.74151 34.3465L14.5222 28.6175C18.2678 24.9054 20.4715 22.6236 20.7823 22.1358C21.8201 20.5064 22.2628 18.8002 22.0322 17.3187C21.4235 13.4086 17.2025 11.2541 12.885 12.6498C11.9095 12.9651 10.5002 13.7928 10.3934 14.113C10.3668 14.1929 10.6663 14.5007 11.0588 14.7971L11.7726 15.3359L12.224 14.9916C13.6674 13.8907 16.2565 13.7305 18.0645 14.6303C18.9116 15.0519 19.4977 15.6164 19.9168 16.4144C20.2099 16.9724 20.2572 17.2226 20.2591 18.2272C20.2613 19.2858 20.223 19.4696 19.8404 20.2342C19.6089 20.6971 19.0562 21.4974 18.6123 22.0126C18.1686 22.5276 14.8484 25.8688 11.2344 29.4372L4.66319 35.9251L5.08376 36.5275C5.8037 37.5588 8.8049 40.4598 10.1011 41.3772C12.5438 43.1062 15.8233 44.5002 18.8571 45.0988C20.6354 45.4495 23.6917 45.5745 25.4437 45.3678C31.1466 44.6953 36.2701 42.0574 39.8882 37.9312C46.8869 29.9493 47.4796 18.5224 41.3417 9.90771C40.8976 9.28449 40.246 8.4542 39.8935 8.0625L39.2526 7.35034L33.8056 12.7882L28.3586 18.226V19.5207V20.8153L32.5022 16.6733L36.6457 12.5313V23.4398V34.3482H34.3797H32.1137V27.9291V21.5098L32.7583 20.8397L33.403 20.1695L33.4057 26.6818L33.4086 33.1942L34.3474 33.1561L35.2861 33.1181L35.3194 24.4425L35.3526 15.7669L31.2082 19.9097L27.0637 24.0525V20.7519V17.4514L32.6392 11.8748L38.2144 6.29841L37.2683 5.54103C34.4024 3.24692 31.2169 1.74372 27.5032 0.933008C25.8181 0.565136 21.4044 0.46336 19.6183 0.751079ZM100.741 12.6254C100.563 12.7171 100.316 12.9955 100.191 13.2438C99.9861 13.6521 99.9651 14.2162 99.9645 19.166V24.6367H101.13H102.295V20.5263V16.4159L106.407 20.5202C108.667 22.7777 110.682 24.6857 110.883 24.7604C111.356 24.9362 111.778 24.8238 112.156 24.4213L112.46 24.0982L112.497 18.3463L112.535 12.5945H111.366H110.197L110.163 16.6902L110.129 20.786L105.966 16.6895C101.625 12.419 101.432 12.2689 100.741 12.6254ZM62.8019 12.7424C61.1779 13.0107 59.4598 14.2404 58.8019 15.6058C57.7175 17.8552 57.9922 20.6778 59.4779 22.5555C60.1084 23.352 61.1674 24.0836 62.1136 24.3757C62.8779 24.6119 63.3148 24.6367 66.7002 24.6367H70.4417V23.4803V22.3237L66.7189 22.2826C63.1914 22.2434 62.9692 22.2266 62.4779 21.9613C62.1931 21.8072 61.7738 21.4867 61.5458 21.2491C60.1499 19.7921 60.2598 17.0246 61.761 15.8355C62.6861 15.1028 63.0025 15.0548 66.8972 15.0548H70.4417V13.8247V12.5945L66.9779 12.6097C65.0727 12.6179 63.1937 12.6778 62.8019 12.7424ZM79.8522 12.6795C79.8043 12.7276 79.7645 15.4378 79.7645 18.702V24.6367H85.2031H90.6417V23.4713V22.306H86.4329H82.2247V20.9464V19.5868H86.244H90.2639L90.2259 18.5833L90.1885 17.5798L86.2066 17.5455L82.2247 17.5112V16.2831V15.0548H86.4382H90.651L90.6142 13.857L90.5768 12.6593L85.2586 12.6255C82.3335 12.6069 79.9007 12.6312 79.8522 12.6795ZM121.459 13.8247V15.0548H123.66H125.862V19.8457V24.6367H127.092H128.322V19.8457V15.0548H130.523H132.724V13.8247V12.5945H127.092H121.459V13.8247ZM141.579 12.7824C141.539 12.8857 141.531 14.7358 141.561 16.8936C141.62 21.2072 141.676 21.5707 142.448 22.7367C143.229 23.9162 144.561 24.5462 146.792 24.7912C149.821 25.124 152.593 24.3303 153.63 22.8335C153.822 22.555 154.104 21.9582 154.255 21.5073C154.509 20.7452 154.529 20.4041 154.535 16.6733L154.543 12.6593H153.377H152.212L152.148 16.6733C152.087 20.4244 152.065 20.7171 151.817 21.1402C151.249 22.1059 150.284 22.4355 148.021 22.4355C146.428 22.4355 145.507 22.2178 144.884 21.6938C144.102 21.035 144.067 20.8291 144.015 16.5114L143.967 12.5945H142.809C141.916 12.5945 141.634 12.6376 141.579 12.7824ZM164.146 12.6809C164.099 12.7283 164.06 15.4378 164.06 18.702V24.6367H165.29H166.52V23.0182V21.3996H169.281H172.042L173.502 23.0182L174.962 24.6367H176.663H178.364L176.574 22.8422L174.783 21.0476L175.239 20.7655C176.405 20.045 177.039 18.7399 177.039 17.0618C177.039 14.6972 175.798 13.1456 173.58 12.7355C172.755 12.5829 164.294 12.5338 164.146 12.6809ZM184.602 12.7564C184.656 12.8455 186.087 14.5333 187.782 16.5074L190.863 20.0964V22.3666V24.6367H192.094H193.324V22.3637V20.0907L196.496 16.4079C198.241 14.3822 199.669 12.6938 199.669 12.6557C199.669 12.6176 198.987 12.6027 198.154 12.6227L196.64 12.6593L194.431 15.2743C193.217 16.7124 192.194 17.8889 192.159 17.8887C192.123 17.8883 191.219 16.841 190.152 15.5612C189.083 14.2813 188.076 13.0903 187.912 12.9144C187.629 12.6083 187.548 12.5945 186.06 12.5945C184.849 12.5945 184.525 12.6304 184.602 12.7564ZM166.52 17.1992V19.3434L169.919 19.3033C173.061 19.2662 173.353 19.2431 173.771 18.9997C174.364 18.6552 174.677 18.0145 174.677 17.1461C174.678 16.2255 174.377 15.6224 173.759 15.3072C173.305 15.076 172.98 15.0548 169.892 15.0548H166.52V17.1992ZM47.9572 30.3331C47.62 30.4691 47.2636 30.9533 47.2636 31.2752C47.2636 31.7464 47.8315 32.125 48.6825 32.2214C49.1221 32.2711 49.5695 32.3995 49.6768 32.5068C50.2407 33.0708 48.5759 33.3582 47.9813 32.7995C47.6562 32.4942 47.2636 32.5122 47.2636 32.8324C47.2636 32.9291 47.4139 33.1494 47.5978 33.3222C47.8902 33.5968 48.0534 33.636 48.9038 33.636C49.8082 33.636 49.8975 33.6107 50.1883 33.2727C50.8531 32.4998 50.4553 31.8311 49.2489 31.6937C48.1394 31.5675 48.0196 31.5172 48.0654 31.197C48.0993 30.9582 48.2017 30.9111 48.7585 30.8786C49.2701 30.8487 49.4788 30.8985 49.7213 31.1088C49.9813 31.3344 50.0589 31.3494 50.2059 31.2024C50.8006 30.6076 49.001 29.9117 47.9572 30.3331ZM51.31 30.2883C51.0823 30.383 51.1085 30.6797 51.353 30.7734C51.4657 30.8167 51.757 30.852 52.0005 30.852H52.443V32.1978C52.443 33.3085 52.479 33.5574 52.6489 33.6226C53.027 33.7677 53.0905 33.5648 53.0905 32.2112V30.8663L53.7055 30.8268C54.2211 30.7937 54.3206 30.7455 54.3206 30.5283C54.3206 30.2866 54.2262 30.2678 52.8962 30.2451C52.1129 30.2318 51.3991 30.2512 51.31 30.2883Z" fill="black"/>
<path d="M155.145 36.2576C154.849 36.2576 154.574 36.2029 154.321 36.0938C154.071 35.9807 153.853 35.8287 153.666 35.6377C153.482 35.4427 153.338 35.2127 153.233 34.9476C153.131 34.6825 153.081 34.3959 153.081 34.088C153.081 33.776 153.131 33.4915 153.233 33.2342C153.338 32.9769 153.482 32.7585 153.666 32.5792C153.853 32.3959 154.071 32.2556 154.321 32.1582C154.574 32.0567 154.849 32.0061 155.145 32.0061H157.449V32.7488H155.145C154.954 32.7488 154.777 32.7839 154.613 32.8541C154.453 32.9203 154.315 33.0139 154.198 33.1348C154.081 33.2556 153.989 33.3998 153.923 33.5675C153.856 33.7351 153.824 33.9203 153.824 34.1231C153.824 34.3219 153.856 34.507 153.923 34.6786C153.989 34.8501 154.081 34.9983 154.198 35.1231C154.315 35.2439 154.453 35.3394 154.613 35.4096C154.777 35.4798 154.954 35.5149 155.145 35.5149H156.964V34.4096H155.046V33.7839H157.713V36.2576H155.145Z" fill="black"/>
<path d="M144.11 33.1466V36.2577H143.402V32.3981C143.402 32.2616 143.436 32.1544 143.502 32.0764C143.572 31.9946 143.665 31.9536 143.782 31.9536C143.837 31.9536 143.89 31.9653 143.94 31.9887C143.991 32.0121 144.044 32.0511 144.098 32.1057L147.098 35.0823V31.9712H147.806V35.8659C147.806 36.0062 147.771 36.1154 147.701 36.1934C147.635 36.2714 147.547 36.3103 147.437 36.3103C147.317 36.3103 147.204 36.2577 147.098 36.1524L144.11 33.1466Z" fill="black"/>
<path d="M137.224 36.2576V32.0061H137.966V36.2576H137.224Z" fill="black"/>
<path d="M127.364 36.2576V32.0061H129.826C130.126 32.0061 130.403 32.0567 130.657 32.1582C130.91 32.2595 131.129 32.4018 131.312 32.5851C131.495 32.7683 131.637 32.9886 131.739 33.2459C131.844 33.4993 131.896 33.78 131.896 34.088C131.896 34.3959 131.844 34.6825 131.739 34.9476C131.637 35.2127 131.495 35.4427 131.312 35.6377C131.129 35.8287 130.91 35.9807 130.657 36.0938C130.403 36.2029 130.126 36.2576 129.826 36.2576H127.364ZM129.826 35.5149C130.017 35.5149 130.193 35.4798 130.353 35.4096C130.516 35.3394 130.657 35.2439 130.774 35.1231C130.895 34.9983 130.988 34.8501 131.054 34.6786C131.12 34.507 131.154 34.3219 131.154 34.1231C131.154 33.9242 131.12 33.741 131.054 33.5734C130.988 33.4018 130.895 33.2556 130.774 33.1348C130.657 33.0139 130.516 32.9203 130.353 32.8541C130.193 32.7839 130.017 32.7488 129.826 32.7488H128.101V35.5149H129.826Z" fill="black"/>
<path d="M118.271 33.1466V36.2577H117.563V32.3981C117.563 32.2616 117.596 32.1544 117.662 32.0764C117.733 31.9946 117.826 31.9536 117.943 31.9536C117.997 31.9536 118.05 31.9653 118.101 31.9887C118.151 32.0121 118.204 32.0511 118.259 32.1057L121.259 35.0823V31.9712H121.966V35.8659C121.966 36.0062 121.931 36.1154 121.861 36.1934C121.795 36.2714 121.707 36.3103 121.598 36.3103C121.477 36.3103 121.364 36.2577 121.259 36.1524L118.271 33.1466Z" fill="black"/>
<path d="M108.465 36.2576V32.0061H112.26V32.7488H109.202V35.5149H112.266V36.2576H108.465ZM109.202 34.4096V33.7839H112.102V34.4096H109.202Z" fill="black"/>
<path d="M99.6514 36.2576V32.0061H100.394V35.5149H103.254V36.2576H99.6514Z" fill="black"/>
</g>
<defs>
<clipPath id="clip0_326_150">
<rect width="200" height="45.614" fill="white"/>
</clipPath>
</defs>
</svg>
